<svg xmlns="http://www.w3.org/2000/svg" viewBox="0 0 64 64">
  <path fill="#1e1e1e" d="M17 6c-2.2 0-4 1.8-4 4v44c0 2.2 1.8 4 4 4h30c2.2 0 4-1.8 4-4V21L35 6H17z"/>
  <path fill="#303030" d="M35 6v13h13L35 6z"/>
  <path fill="#ff8600" d="M30 21c3 5-2 7-2 12s5 9 5 14-5 10-11 10c-7 0-12-5-12-12 0-11 12-16 12-28 0-3-1-6-1-6 4 3 8 8 9 14z"/>
  <path fill="#ffc24a" d="M24 33c2 4-1 5-1 8s3 6 3 9-3 6-6 6c-4 0-7-3-7-7 0-7 7-10 7-19 0-2-1-3-1-5 2 2 4 5 5 8z"/>
  <path fill="#ffffff" opacity="0.1" d="M33 22h9v4h-9zm0 8h12v4H33zm0 8h12v4H33z"/>
</svg>
