<svg xmlns="http://www.w3.org/2000/svg" viewBox="0 0 64 64">
  <circle cx="32" cy="36" r="20" fill="#0b3fa5"/>
  <circle cx="32" cy="36" r="14" fill="#ffffff"/>
  <path d="M26 26h8c4.4 0 8 3.6 8 8v16h-6V34c0-1.7-1.3-3-3-3h-3v19h-7V26z" fill="#0b3fa5"/>
  <path d="M36 9c2.4 5.4-2.6 7.4-2.6 11.4 0 2.4.9 4.8 2.2 6.6-3.3-.8-6.2-3.6-6.2-7.1 0-4.8 6.6-8.9 6.6-10.9z" fill="#ff6b1b"/>
  <path d="M33.4 16.5c1.6 3.8-1.7 5-1.7 7.6 0 .9.2 1.7.5 2.5-1.8-.5-3.6-2.2-3.6-4.5 0-3 3.8-5.4 4.8-5.6z" fill="#ffb347"/>
</svg>
