<?xml version="1.0" encoding="UTF-8" standalone="no"?>
<svg
   xmlns:dc="http://purl.org/dc/elements/1.1/"
   xmlns:cc="http://creativecommons.org/ns#"
   xmlns:rdf="http://www.w3.org/1999/02/22-rdf-syntax-ns#"
   xmlns:svg="http://www.w3.org/2000/svg"
   xmlns="http://www.w3.org/2000/svg"
   id="svg945"
   version="1.1"
   viewBox="0 0 75 75">
  <metadata
     id="metadata949">
    <rdf:RDF>
      <cc:Work
         rdf:about="">
        <dc:format>image/svg+xml</dc:format>
        <dc:type
           rdf:resource="http://purl.org/dc/dcmitype/StillImage" />
        <dc:title>AWS-Direct-Connect</dc:title>
      </cc:Work>
    </rdf:RDF>
  </metadata>
  <defs
     id="defs928">
    <style
       id="style921">.cls-1{fill:url(#PurpleGradient);}.cls-2{fill:#fff;}</style>
    <linearGradient
       gradientUnits="userSpaceOnUse"
       gradientTransform="rotate(90,-646.5,24.5)"
       y2="-641.22345"
       x2="-640.30151"
       y1="-606.47"
       x1="-580.47"
       id="PurpleGradient">
      <stop
         id="stop923"
         stop-color="#4d27a8"
         offset="0" />
      <stop
         id="stop925"
         stop-color="#a166ff"
         offset="1" />
    </linearGradient>
  </defs>
  <title
     id="title930">AWS-Direct-Connect</title>
  <g
     id="Reference">
    <g
       data-name="Icon Test"
       id="Icon_Test">
      <path
         id="path933"
         d="m 52.5,44.49 h -7 v -2 h 7 c 2.41,0 8,-0.72 8,-7.4 0,-4 -2.35,-6.51 -7,-7.45 a 1,1 0 0 1 -0.8,-0.92 c -0.23,-3.9 -2.5,-5.29 -4.37,-5.29 a 4.11,4.11 0 0 0 -3.26,1.66 1,1 0 0 1 -1.73,-0.26 13,13 0 0 0 -3.13,-5 11.17,11.17 0 0 0 -19.21,7.51 11.94,11.94 0 0 0 0.08,1.35 1,1 0 0 1 -0.75,1.1 C 18.16,28.32 14.5,30 14.5,35 c 0,0.19 0,0.37 0,0.55 a 7.62,7.62 0 0 0 7.83,6.92 h 5.17 v 2 h -5.15 a 9.62,9.62 0 0 1 -9.83,-8.81 c 0,-0.22 0,-0.44 0,-0.66 A 8.89,8.89 0 0 1 19,26.08 c 0,-0.24 0,-0.49 0,-0.74 a 13.17,13.17 0 0 1 22.6,-8.9 14.46,14.46 0 0 1 3,4.28 6,6 0 0 1 3.71,-1.29 c 2.8,0 5.75,2 6.3,6.42 5.08,1.25 7.87,4.51 7.87,9.24 0.02,6.91 -5.15,9.4 -9.98,9.4 z"
         class="cls-2" />
      <path
         id="path935"
         d="M 46.81,56.49 H 46.5 v -5.23 a 2.91,2.91 0 0 0 -3,-2.77 H 29.53 a 2.91,2.91 0 0 0 -3,2.77 v 5.23 h -0.31 a 2.93,2.93 0 0 0 -2.69,3.12 v 2.88 h 2 v -2.88 c 0,-0.64 0.37,-1.12 0.69,-1.12 h 20.59 c 0.32,0 0.69,0.48 0.69,1.12 v 2.88 h 2 V 59.61 A 2.93,2.93 0 0 0 46.81,56.49 Z M 28.5,51.26 c 0,-0.42 0.47,-0.77 1,-0.77 h 13.97 c 0.56,0 1,0.35 1,0.77 v 5.23 h -16 z"
         class="cls-2" />
      <path
         id="path937"
         d="m 30.5,30.49 a 4,4 0 0 0 -1,7.87 v 9.13 h 2 v -9.13 a 4,4 0 0 0 -1,-7.87 z m 0,6 a 2,2 0 1 1 2,-2 2,2 0 0 1 -2,2 z"
         class="cls-2" />
      <path
         id="path939"
         d="m 36.44,23.49 a 4,4 0 0 0 -0.94,7.88 v 16.12 h 2 V 31.34 a 4,4 0 0 0 -1.06,-7.85 z m 0,6 a 2,2 0 1 1 2,-2 2,2 0 0 1 -2,2 z"
         class="cls-2" />
      <path
         id="path941"
         d="m 42.5,30.49 a 4,4 0 0 0 -1,7.87 v 9.13 h 2 v -9.13 a 4,4 0 0 0 -1,-7.87 z m 0,6 a 2,2 0 1 1 2,-2 2,2 0 0 1 -2,2 z"
         class="cls-2" />
    </g>
  </g>
</svg>
